<?xml version="1.0" encoding="UTF-8"?>
<!DOCTYPE svg PUBLIC "-//W3C//DTD SVG 1.1//EN" "http://www.w3.org/Graphics/SVG/1.1/DTD/svg11.dtd">
<svg xmlns="http://www.w3.org/2000/svg" version="1.1" width="951px" height="841px" style="shape-rendering:geometricPrecision; text-rendering:geometricPrecision; image-rendering:optimizeQuality; fill-rule:evenodd; clip-rule:evenodd" xmlns:xlink="http://www.w3.org/1999/xlink">
<g><path style="opacity:1" fill="#feea83" d="M -0.5,-0.5 C 316.5,-0.5 633.5,-0.5 950.5,-0.5C 950.5,-0.166667 950.5,0.166667 950.5,0.5C 633.833,0.5 317.167,0.5 0.5,0.5C 0.5,280.5 0.5,560.5 0.5,840.5C 0.166667,840.5 -0.166667,840.5 -0.5,840.5C -0.5,560.167 -0.5,279.833 -0.5,-0.5 Z"/></g>
<g><path style="opacity:1" fill="#f8da0f" d="M 950.5,0.5 C 950.5,0.833333 950.5,1.16667 950.5,1.5C 634.167,1.5 317.833,1.5 1.5,1.5C 1.5,281.167 1.5,560.833 1.5,840.5C 1.16667,840.5 0.833333,840.5 0.5,840.5C 0.5,560.5 0.5,280.5 0.5,0.5C 317.167,0.5 633.833,0.5 950.5,0.5 Z"/></g>
<g><path style="opacity:1" fill="#fcd906" d="M 950.5,2.5 C 950.5,3.16667 950.5,3.83333 950.5,4.5C 636.166,4.83333 321.833,4.5 7.5,3.5C 321.833,2.5 636.166,2.16667 950.5,2.5 Z"/></g>
<g><path style="opacity:1" fill="#fed609" d="M 950.5,1.5 C 950.5,1.83333 950.5,2.16667 950.5,2.5C 636.166,2.16667 321.833,2.5 7.5,3.5C 321.833,4.5 636.166,4.83333 950.5,4.5C 950.5,283.167 950.5,561.833 950.5,840.5C 634.167,840.5 317.833,840.5 1.5,840.5C 1.5,560.833 1.5,281.167 1.5,1.5C 317.833,1.5 634.167,1.5 950.5,1.5 Z"/></g>
<g><path style="opacity:1" fill="#f3237a" d="M 589.5,137.5 C 590.186,113.628 590.852,89.6277 591.5,65.5C 595.257,53.5751 603.257,46.4084 615.5,44C 633.384,42.022 645.217,49.522 651,66.5C 651.5,90.1643 651.667,113.831 651.5,137.5C 669.537,137.1 687.537,137.6 705.5,139C 726.667,144.167 739.833,157.333 745,178.5C 745.5,200.164 745.667,221.831 745.5,243.5C 775.55,243.031 805.55,243.531 835.5,245C 851.991,252.817 858.158,265.65 854,283.5C 850.329,294.503 842.829,301.337 831.5,304C 802.835,304.5 774.169,304.667 745.5,304.5C 745.5,333.167 745.5,361.833 745.5,390.5C 774.169,390.333 802.835,390.5 831.5,391C 850.889,397.756 858.389,411.256 854,431.5C 849.982,441.52 842.815,448.02 832.5,451C 803.537,452.45 774.537,452.95 745.5,452.5C 745.5,481.833 745.5,511.167 745.5,540.5C 774.502,540.333 803.502,540.5 832.5,541C 846.623,545.289 854.289,554.789 855.5,569.5C 855.328,586.027 847.328,596.527 831.5,601C 802.835,601.5 774.169,601.667 745.5,601.5C 745.667,619.503 745.5,637.503 745,655.5C 741.041,678.268 727.874,692.434 705.5,698C 687.537,699.4 669.537,699.9 651.5,699.5C 651.667,726.502 651.5,753.502 651,780.5C 648.059,794.441 639.559,802.608 625.5,805C 608.785,806.152 597.452,798.985 591.5,783.5C 590.858,755.36 590.191,727.36 589.5,699.5C 561.167,699.5 532.833,699.5 504.5,699.5C 504.957,727.542 504.457,755.542 503,783.5C 499.082,794.92 491.248,801.92 479.5,804.5C 474.13,804.608 468.797,804.275 463.5,803.5C 452.206,799.368 445.373,791.368 443,779.5C 442.5,752.835 442.333,726.169 442.5,699.5C 413.167,699.5 383.833,699.5 354.5,699.5C 354.667,727.502 354.5,755.502 354,783.5C 346.562,801.254 333.396,808.087 314.5,804C 303.147,800.137 296.313,792.303 294,780.5C 293.5,753.502 293.333,726.502 293.5,699.5C 274.463,699.906 255.463,699.406 236.5,698C 220.575,694.071 208.742,684.904 201,670.5C 199.511,665.543 198.178,660.543 197,655.5C 196.5,637.503 196.333,619.503 196.5,601.5C 169.498,601.667 142.498,601.5 115.5,601C 96.2399,596.016 87.7399,583.516 90,563.5C 93.4325,552.401 100.599,544.901 111.5,541C 139.831,540.5 168.165,540.333 196.5,540.5C 196.5,511.167 196.5,481.833 196.5,452.5C 168.137,452.93 139.804,452.43 111.5,451C 97.2557,446.086 89.9224,436.086 89.5,421C 90.2296,407.199 96.8963,397.532 109.5,392C 138.458,390.541 167.458,390.041 196.5,390.5C 196.5,361.833 196.5,333.167 196.5,304.5C 167.45,304.967 138.45,304.467 109.5,303C 89.4303,291.899 84.597,276.066 95,255.5C 99.3991,250.053 104.899,246.22 111.5,244C 139.796,242.551 168.13,242.051 196.5,242.5C 196.333,221.497 196.5,200.497 197,179.5C 202.272,156.562 216.438,142.728 239.5,138C 257.497,137.5 275.497,137.333 293.5,137.5C 293.333,113.831 293.5,90.1643 294,66.5C 301.837,46.6653 316.004,39.8319 336.5,46C 345.151,49.9841 350.985,56.4841 354,65.5C 354.5,89.4977 354.667,113.498 354.5,137.5C 383.833,137.5 413.167,137.5 442.5,137.5C 442.039,113.115 442.539,88.7813 444,64.5C 454.059,44.1446 469.559,38.6446 490.5,48C 495.774,52.2743 499.941,57.441 503,63.5C 504.461,88.1148 504.961,112.781 504.5,137.5C 532.833,137.5 561.167,137.5 589.5,137.5 Z"/></g>
<g><path style="opacity:1" fill="#fea925" d="M 591.5,65.5 C 590.852,89.6277 590.186,113.628 589.5,137.5C 589.333,113.831 589.5,90.1643 590,66.5C 590.383,65.944 590.883,65.6107 591.5,65.5 Z"/></g>
<g><path style="opacity:1" fill="#fed609" d="M 300.5,202.5 C 413.5,202.333 526.5,202.5 639.5,203C 662.399,208.02 676.566,221.853 682,244.5C 682.667,360.167 682.667,475.833 682,591.5C 676.782,614.679 662.616,628.846 639.5,634C 527.5,634.667 415.5,634.667 303.5,634C 280.884,629.384 266.717,615.884 261,593.5C 260.333,476.5 260.333,359.5 261,242.5C 264.277,228.586 271.777,217.753 283.5,210C 289.032,206.894 294.699,204.394 300.5,202.5 Z"/></g>
<g><path style="opacity:1" fill="#f87e3f" d="M 597.5,294.5 C 597.167,294.5 596.833,294.5 596.5,294.5C 513.833,294.5 431.167,294.5 348.5,294.5C 347.837,350.177 348.504,405.51 350.5,460.5C 350.092,461.643 349.425,462.643 348.5,463.5C 347.5,406.837 347.167,350.171 347.5,293.5C 431.002,293.167 514.335,293.501 597.5,294.5 Z"/></g>
<g><path style="opacity:1" fill="#f3237a" d="M 596.5,294.5 C 596.667,322.502 596.5,350.502 596,378.5C 594.989,379.337 593.822,379.67 592.5,379.5C 553.492,370.999 514.492,362.332 475.5,353.5C 466.575,355.975 457.908,359.142 449.5,363C 440.634,400.856 432.3,438.856 424.5,477C 424.667,478.167 424.833,479.333 425,480.5C 429.833,484 434.667,487.5 439.5,491C 419.829,486.451 400.163,481.451 380.5,476C 379.484,475.481 378.818,474.647 378.5,473.5C 397.077,430.671 415.41,387.671 433.5,344.5C 433.167,344.167 432.833,343.833 432.5,343.5C 418.905,349.878 405.739,356.878 393,364.5C 378.524,396.444 364.357,428.444 350.5,460.5C 348.504,405.51 347.837,350.177 348.5,294.5C 431.167,294.5 513.833,294.5 596.5,294.5 Z"/></g>
<g><path style="opacity:1" fill="#f44f62" d="M 596.5,294.5 C 596.833,294.5 597.167,294.5 597.5,294.5C 597.5,323.167 597.5,351.833 597.5,380.5C 595.585,380.784 593.919,380.451 592.5,379.5C 593.822,379.67 594.989,379.337 596,378.5C 596.5,350.502 596.667,322.502 596.5,294.5 Z"/></g>
<g><path style="opacity:1" fill="#f32379" d="M 468.5,377.5 C 499.951,383.13 531.284,389.297 562.5,396C 529.124,409.736 495.791,423.57 462.5,437.5C 464.2,417.469 466.2,397.469 468.5,377.5 Z"/></g>
<g><path style="opacity:1" fill="#f3227a" d="M 596.5,406.5 C 597.146,455.983 596.48,505.316 594.5,554.5C 512.5,554.5 430.5,554.5 348.5,554.5C 347.844,531.142 348.51,508.142 350.5,485.5C 357.586,491.223 364.92,496.723 372.5,502C 425.503,507.307 478.503,512.307 531.5,517C 506.185,510.004 480.852,503.004 455.5,496C 457.38,478.13 459.713,460.296 462.5,442.5C 507.116,430.295 551.782,418.295 596.5,406.5 Z"/></g>
<g><path style="opacity:1" fill="#f44e62" d="M 596.5,406.5 C 597.499,455.664 597.832,504.997 597.5,554.5C 596.5,554.5 595.5,554.5 594.5,554.5C 596.48,505.316 597.146,455.983 596.5,406.5 Z"/></g>
<g><path style="opacity:1" fill="#f97f40" d="M 350.5,485.5 C 348.51,508.142 347.844,531.142 348.5,554.5C 347.502,531.339 347.169,508.006 347.5,484.5C 348.791,484.263 349.791,484.596 350.5,485.5 Z"/></g>
<g><path style="opacity:1" fill="#fea925" d="M 589.5,699.5 C 590.191,727.36 590.858,755.36 591.5,783.5C 590.778,783.082 590.278,782.416 590,781.5C 589.5,754.169 589.333,726.835 589.5,699.5 Z"/></g>
<g><path style="opacity:1" fill="#f1604b" d="M 463.5,803.5 C 468.797,804.275 474.13,804.608 479.5,804.5C 477.527,805.163 475.361,805.496 473,805.5C 469.523,805.672 466.356,805.006 463.5,803.5 Z"/></g>
</svg>
