<?xml version="1.0" encoding="UTF-8"?>
<!DOCTYPE svg PUBLIC "-//W3C//DTD SVG 1.1//EN" "http://www.w3.org/Graphics/SVG/1.1/DTD/svg11.dtd">
<svg xmlns="http://www.w3.org/2000/svg" version="1.1" width="951px" height="841px" style="shape-rendering:geometricPrecision; text-rendering:geometricPrecision; image-rendering:optimizeQuality; fill-rule:evenodd; clip-rule:evenodd" xmlns:xlink="http://www.w3.org/1999/xlink">
<g><path style="opacity:1" fill="#f98dbf" d="M -0.5,-0.5 C 316.5,-0.5 633.5,-0.5 950.5,-0.5C 950.5,-0.166667 950.5,0.166667 950.5,0.5C 635.833,0.5 321.167,0.5 6.5,0.5C 4.5,0.5 2.5,0.5 0.5,0.5C 0.5,2.5 0.5,4.5 0.5,6.5C 0.5,6.83333 0.5,7.16667 0.5,7.5C 0.5,285.167 0.5,562.833 0.5,840.5C 0.166667,840.5 -0.166667,840.5 -0.5,840.5C -0.5,560.167 -0.5,279.833 -0.5,-0.5 Z"/></g>
<g><path style="opacity:1" fill="#f32478" d="M 6.5,0.5 C 321.167,0.5 635.833,0.5 950.5,0.5C 950.5,1.5 950.5,2.5 950.5,3.5C 635.833,3.5 321.167,3.5 6.5,3.5C 6.5,2.5 6.5,1.5 6.5,0.5 Z"/></g>
<g><path style="opacity:1" fill="#f52078" d="M 6.5,0.5 C 6.5,1.5 6.5,2.5 6.5,3.5C 321.167,3.5 635.833,3.5 950.5,3.5C 950.5,3.83333 950.5,4.16667 950.5,4.5C 633.777,3.84193 317.111,4.50859 0.5,6.5C 0.5,4.5 0.5,2.5 0.5,0.5C 2.5,0.5 4.5,0.5 6.5,0.5 Z"/></g>
<g><path style="opacity:1" fill="#f32377" d="M 0.5,7.5 C 1.83333,7.5 3.16667,7.5 4.5,7.5C 4.5,285.167 4.5,562.833 4.5,840.5C 3.16667,840.5 1.83333,840.5 0.5,840.5C 0.5,562.833 0.5,285.167 0.5,7.5 Z"/></g>
<g><path style="opacity:1" fill="#f3227a" d="M 950.5,4.5 C 950.5,5.5 950.5,6.5 950.5,7.5C 636.167,7.5 321.833,7.5 7.5,7.5C 7.5,285.167 7.5,562.833 7.5,840.5C 6.5,840.5 5.5,840.5 4.5,840.5C 4.5,562.833 4.5,285.167 4.5,7.5C 3.16667,7.5 1.83333,7.5 0.5,7.5C 0.5,7.16667 0.5,6.83333 0.5,6.5C 317.111,4.50859 633.777,3.84193 950.5,4.5 Z"/></g>
<g><path style="opacity:1" fill="#f3227a" d="M 950.5,7.5 C 950.5,285.167 950.5,562.833 950.5,840.5C 636.167,840.5 321.833,840.5 7.5,840.5C 7.5,562.833 7.5,285.167 7.5,7.5C 321.833,7.5 636.167,7.5 950.5,7.5 Z"/></g>
</svg>
