<?xml version="1.0" encoding="UTF-8"?>
<!DOCTYPE svg PUBLIC "-//W3C//DTD SVG 1.1//EN" "http://www.w3.org/Graphics/SVG/1.1/DTD/svg11.dtd">
<svg xmlns="http://www.w3.org/2000/svg" version="1.1" width="951px" height="841px" style="shape-rendering:geometricPrecision; text-rendering:geometricPrecision; image-rendering:optimizeQuality; fill-rule:evenodd; clip-rule:evenodd" xmlns:xlink="http://www.w3.org/1999/xlink">
<g><path style="opacity:1" fill="#feea83" d="M -0.5,-0.5 C 316.5,-0.5 633.5,-0.5 950.5,-0.5C 950.5,-0.166667 950.5,0.166667 950.5,0.5C 633.833,0.5 317.167,0.5 0.5,0.5C 0.5,280.5 0.5,560.5 0.5,840.5C 0.166667,840.5 -0.166667,840.5 -0.5,840.5C -0.5,560.167 -0.5,279.833 -0.5,-0.5 Z"/></g>
<g><path style="opacity:1" fill="#f8da0f" d="M 950.5,0.5 C 950.5,0.833333 950.5,1.16667 950.5,1.5C 634.167,1.5 317.833,1.5 1.5,1.5C 1.5,2.5 1.5,3.5 1.5,4.5C 1.5,283.167 1.5,561.833 1.5,840.5C 1.16667,840.5 0.833333,840.5 0.5,840.5C 0.5,560.5 0.5,280.5 0.5,0.5C 317.167,0.5 633.833,0.5 950.5,0.5 Z"/></g>
<g><path style="opacity:1" fill="#fcd906" d="M 950.5,2.5 C 950.5,3.16667 950.5,3.83333 950.5,4.5C 636.166,4.83333 321.833,4.5 7.5,3.5C 321.833,2.5 636.166,2.16667 950.5,2.5 Z"/></g>
<g><path style="opacity:1" fill="#fed507" d="M 950.5,1.5 C 950.5,1.83333 950.5,2.16667 950.5,2.5C 636.166,2.16667 321.833,2.5 7.5,3.5C 321.833,4.5 636.166,4.83333 950.5,4.5C 950.5,5.16667 950.5,5.83333 950.5,6.5C 636.166,6.33333 321.833,6.5 7.5,7C 6.50048,284.764 6.16715,562.597 6.5,840.5C 5.83333,840.5 5.16667,840.5 4.5,840.5C 3.83527,562.027 4.50193,283.693 6.5,5.5C 4.95467,4.54811 3.28801,4.21478 1.5,4.5C 1.5,3.5 1.5,2.5 1.5,1.5C 317.833,1.5 634.167,1.5 950.5,1.5 Z"/></g>
<g><path style="opacity:1" fill="#fed709" d="M 950.5,6.5 C 950.5,284.5 950.5,562.5 950.5,840.5C 635.833,840.5 321.167,840.5 6.5,840.5C 6.16715,562.597 6.50048,284.764 7.5,7C 321.833,6.5 636.166,6.33333 950.5,6.5 Z"/></g>
<g><path style="opacity:1" fill="#fdd804" d="M 1.5,4.5 C 3.28801,4.21478 4.95467,4.54811 6.5,5.5C 4.50193,283.693 3.83527,562.027 4.5,840.5C 3.5,840.5 2.5,840.5 1.5,840.5C 1.5,561.833 1.5,283.167 1.5,4.5 Z"/></g>
</svg>
