<?xml version="1.0" encoding="UTF-8"?>
<!DOCTYPE svg PUBLIC "-//W3C//DTD SVG 1.1//EN" "http://www.w3.org/Graphics/SVG/1.1/DTD/svg11.dtd">
<svg xmlns="http://www.w3.org/2000/svg" version="1.1" width="951px" height="841px" style="shape-rendering:geometricPrecision; text-rendering:geometricPrecision; image-rendering:optimizeQuality; fill-rule:evenodd; clip-rule:evenodd" xmlns:xlink="http://www.w3.org/1999/xlink">
<g><path style="opacity:1" fill="#f98dbf" d="M -0.5,-0.5 C 316.5,-0.5 633.5,-0.5 950.5,-0.5C 950.5,-0.166667 950.5,0.166667 950.5,0.5C 633.833,0.5 317.167,0.5 0.5,0.5C 0.5,280.5 0.5,560.5 0.5,840.5C 0.166667,840.5 -0.166667,840.5 -0.5,840.5C -0.5,560.167 -0.5,279.833 -0.5,-0.5 Z"/></g>
<g><path style="opacity:1" fill="#f3227a" d="M 950.5,0.5 C 950.5,280.5 950.5,560.5 950.5,840.5C 633.833,840.5 317.167,840.5 0.5,840.5C 0.5,560.5 0.5,280.5 0.5,0.5C 317.167,0.5 633.833,0.5 950.5,0.5 Z"/></g>
<g><path style="opacity:1" fill="#fed60a" d="M 316.5,43.5 C 334.664,41.4893 347.164,48.8227 354,65.5C 354.5,89.4977 354.667,113.498 354.5,137.5C 383.833,137.5 413.167,137.5 442.5,137.5C 442.333,114.498 442.5,91.4976 443,68.5C 451.452,45.0058 467.285,38.1724 490.5,48C 495.774,52.2743 499.941,57.441 503,63.5C 504.461,88.1148 504.961,112.781 504.5,137.5C 533.167,137.5 561.833,137.5 590.5,137.5C 590.039,112.781 590.539,88.1148 592,63.5C 597.659,50.6743 607.492,44.0076 621.5,43.5C 636.722,44.2194 646.556,51.8861 651,66.5C 651.5,90.1643 651.667,113.831 651.5,137.5C 669.542,137.084 687.542,137.584 705.5,139C 726.658,144.158 739.824,157.324 745,178.5C 745.5,199.831 745.667,221.164 745.5,242.5C 772.835,242.333 800.169,242.5 827.5,243C 849.518,247.868 858.351,261.368 854,283.5C 850.329,294.503 842.829,301.337 831.5,304C 802.835,304.5 774.169,304.667 745.5,304.5C 745.5,333.167 745.5,361.833 745.5,390.5C 774.169,390.333 802.835,390.5 831.5,391C 850.889,397.756 858.389,411.256 854,431.5C 850.007,441.493 842.84,447.993 832.5,451C 803.542,452.459 774.542,452.959 745.5,452.5C 745.5,481.833 745.5,511.167 745.5,540.5C 774.502,540.333 803.502,540.5 832.5,541C 851.338,548.172 858.505,561.672 854,581.5C 849.833,591.835 842.333,598.335 831.5,601C 802.835,601.5 774.169,601.667 745.5,601.5C 745.667,619.503 745.5,637.503 745,655.5C 741.041,678.268 727.874,692.434 705.5,698C 687.537,699.4 669.537,699.9 651.5,699.5C 651.967,727.884 651.467,756.217 650,784.5C 644.931,797.97 635.097,804.97 620.5,805.5C 606.365,804.692 596.865,797.692 592,784.5C 590.533,756.217 590.033,727.884 590.5,699.5C 561.833,699.5 533.167,699.5 504.5,699.5C 504.957,727.542 504.457,755.542 503,783.5C 495.591,801.289 482.425,808.122 463.5,804C 453.883,800.052 447.383,793.219 444,783.5C 442.534,755.551 442.034,727.551 442.5,699.5C 413.167,699.5 383.833,699.5 354.5,699.5C 354.667,727.502 354.5,755.502 354,783.5C 346.562,801.254 333.396,808.087 314.5,804C 303.147,800.137 296.313,792.303 294,780.5C 293.5,753.502 293.333,726.502 293.5,699.5C 275.497,699.667 257.497,699.5 239.5,699C 215.597,694.036 201.43,679.536 197,655.5C 196.5,637.503 196.333,619.503 196.5,601.5C 169.165,601.667 141.831,601.5 114.5,601C 98.5873,596.867 90.2539,586.534 89.5,570C 90.3893,555.444 97.7226,545.777 111.5,541C 139.831,540.5 168.165,540.333 196.5,540.5C 196.5,511.167 196.5,481.833 196.5,452.5C 168.137,452.93 139.804,452.43 111.5,451C 97.2557,446.086 89.9224,436.086 89.5,421C 90.2296,407.199 96.8963,397.532 109.5,392C 138.458,390.541 167.458,390.041 196.5,390.5C 196.5,361.833 196.5,333.167 196.5,304.5C 167.45,304.967 138.45,304.467 109.5,303C 94.4957,295.497 87.9957,283.33 90,266.5C 93.4325,255.401 100.599,247.901 111.5,244C 139.791,242.542 168.124,242.042 196.5,242.5C 196.333,221.831 196.5,201.164 197,180.5C 201.791,157.043 215.957,142.876 239.5,138C 257.497,137.5 275.497,137.333 293.5,137.5C 293.333,113.831 293.5,90.1643 294,66.5C 297.684,54.9837 305.184,47.3171 316.5,43.5 Z"/></g>
<g><path style="opacity:1" fill="#f3227a" d="M 300.5,202.5 C 413.5,202.333 526.5,202.5 639.5,203C 662.557,207.723 676.723,221.556 682,244.5C 682.667,360.167 682.667,475.833 682,591.5C 676.804,614.696 662.637,628.863 639.5,634C 527.5,634.667 415.5,634.667 303.5,634C 280.875,629.375 266.708,615.875 261,593.5C 260.333,476.5 260.333,359.5 261,242.5C 266.322,221.345 279.488,208.012 300.5,202.5 Z"/></g>
<g><path style="opacity:1" fill="#fc7c41" d="M 597.5,294.5 C 514.5,294.5 431.5,294.5 348.5,294.5C 348.168,350.336 348.501,406.002 349.5,461.5C 349.631,462.376 349.298,463.043 348.5,463.5C 347.5,406.837 347.167,350.171 347.5,293.5C 431.002,293.167 514.335,293.501 597.5,294.5 Z"/></g>
<g><path style="opacity:1" fill="#fed60a" d="M 597.5,294.5 C 597.5,323.167 597.5,351.833 597.5,380.5C 556.792,371.715 516.126,362.715 475.5,353.5C 466.608,355.965 457.941,359.132 449.5,363C 440.636,400.837 432.303,438.837 424.5,477C 424.559,478.436 424.892,479.769 425.5,481C 430.167,484.333 434.833,487.667 439.5,491C 436.793,491.328 434.126,490.995 431.5,490C 413.945,484.695 396.278,479.862 378.5,475.5C 395.118,433.819 412.618,392.486 431,351.5C 431.735,349.129 432.568,346.795 433.5,344.5C 433.167,344.167 432.833,343.833 432.5,343.5C 418.905,349.878 405.739,356.878 393,364.5C 378.486,396.859 363.986,429.193 349.5,461.5C 348.501,406.002 348.168,350.336 348.5,294.5C 431.5,294.5 514.5,294.5 597.5,294.5 Z"/></g>
<g><path style="opacity:1" fill="#fed50b" d="M 468.5,377.5 C 499.95,383.13 531.284,389.297 562.5,396C 529.169,409.725 495.836,423.558 462.5,437.5C 464.2,417.47 466.2,397.47 468.5,377.5 Z"/></g>
<g><path style="opacity:1" fill="#fed609" d="M 348.5,554.5 C 348.169,531.327 348.502,508.327 349.5,485.5C 357.297,491.237 365.297,496.737 373.5,502C 426.168,507.358 478.835,512.358 531.5,517C 506.172,510.001 480.838,503.001 455.5,496C 457.38,478.13 459.713,460.296 462.5,442.5C 507.43,430.076 552.43,418.076 597.5,406.5C 597.5,455.833 597.5,505.167 597.5,554.5C 514.5,554.5 431.5,554.5 348.5,554.5 Z"/></g>
<g><path style="opacity:1" fill="#f97c41" d="M 349.5,485.5 C 348.502,508.327 348.169,531.327 348.5,554.5C 347.171,531.33 347.171,507.997 348.5,484.5C 349.107,484.624 349.44,484.957 349.5,485.5 Z"/></g>
</svg>
