<?xml version="1.0" encoding="UTF-8"?>
<!DOCTYPE svg PUBLIC "-//W3C//DTD SVG 1.1//EN" "http://www.w3.org/Graphics/SVG/1.1/DTD/svg11.dtd">
<svg xmlns="http://www.w3.org/2000/svg" version="1.1" width="800px" height="800px" style="shape-rendering:geometricPrecision; text-rendering:geometricPrecision; image-rendering:optimizeQuality; fill-rule:evenodd; clip-rule:evenodd" xmlns:xlink="http://www.w3.org/1999/xlink">
<g><path style="opacity:1" fill="#f42279" d="M -0.5,-0.5 C 266.167,-0.5 532.833,-0.5 799.5,-0.5C 799.5,266.167 799.5,532.833 799.5,799.5C 532.833,799.5 266.167,799.5 -0.5,799.5C -0.5,532.833 -0.5,266.167 -0.5,-0.5 Z"/></g>
<g><path style="opacity:1" fill="#f97c41" d="M 69.5,118.5 C 68.5023,142.994 68.169,167.661 68.5,192.5C 67.171,167.663 67.171,142.663 68.5,117.5C 69.1067,117.624 69.44,117.957 69.5,118.5 Z"/></g>
<g><path style="opacity:1" fill="#fed708" d="M 69.5,118.5 C 197.013,203.837 324.68,289.004 452.5,374C 453.659,394.427 453.826,414.927 453,435.5C 325.557,521.447 197.724,606.781 69.5,691.5C 68.5023,667.006 68.169,642.339 68.5,617.5C 176.617,547.89 284.617,478.057 392.5,408C 393.574,407.261 394.241,406.261 394.5,405C 391.628,401.88 388.295,399.213 384.5,397C 278.932,329.058 173.598,260.892 68.5,192.5C 68.169,167.661 68.5023,142.994 69.5,118.5 Z"/></g>
<g><path style="opacity:1" fill="#fa7d40" d="M 68.5,617.5 C 68.169,642.339 68.5023,667.006 69.5,691.5C 69.44,692.043 69.1067,692.376 68.5,692.5C 67.171,667.337 67.171,642.337 68.5,617.5 Z"/></g>
</svg>
