<svg xmlns="http://www.w3.org/2000/svg" width="40" height="64" viewBox="0 0 29 46"><title>30 question</title><rect data-element="frame" x="0" y="8.5" width="29" height="29" rx="6" ry="6" stroke="none" fill="#FFD808"></rect><g transform="translate(5.800000000000001 9.200000000000001) scale(0.6)" fill="#F4227A" class="nc-icon-wrapper"><defs></defs><path d="M12.96 33.84c-2.78 0-5.04 2.26-5.04 5.04s2.26 5.04 5.04 5.04 5.04-2.26 5.04-5.04-2.26-5.04-5.04-5.04z" class="fa-secondary" opacity=".4"></path><path d="M18.12 2.88h-8.04c-5.56 0-10.08 4.52-10.08 10.08 0 2.39 1.93 4.32 4.32 4.32s4.32-1.93 4.32-4.32c0-0.79 0.65-1.44 1.44-1.44h8.04a2.04 2.04 0 0 1 1 3.82l-8.28 4.66a4.32 4.32 0 0 0-2.2 3.76v2.16c0 2.39 1.93 4.32 4.32 4.32 2.26 0 4.11-1.73 4.3-3.94l6.09-3.43a10.71 10.71 0 0 0 5.45-9.31c0-5.89-4.79-10.68-10.68-10.68z" class="fa-primary"></path></g></svg>