<svg xmlns="http://www.w3.org/2000/svg" width="64" height="57" viewBox="0 0 46 41"><title>48 treasure chest</title><rect data-element="frame" x="2.5" y="0" width="41" height="41" rx="9" ry="9" stroke="none" fill="#FFD808"></rect><g transform="translate(9.200000000000001 8.200000000000001) scale(0.6)" fill="#F4227A" class="nc-icon-wrapper"><path d="M28.16 26.88c0 0.71-0.57 1.28-1.28 1.28h-7.68c-0.71 0-1.28-0.57-1.28-1.28v-3.84h-7.68v15.36h25.6v-15.36h-7.68v3.84z m-28.16-16.64v10.24h7.68v-17.92c-4.24 0-7.68 3.44-7.68 7.68z m0 25.6c0 1.41 1.15 2.56 2.56 2.56h5.12v-15.36h-7.68v12.8z m38.4-33.28v17.92h7.68v-10.24c0-4.24-3.44-7.68-7.68-7.68z m-14.08 21.76v-5.12c0-0.71-0.57-1.28-1.28-1.28s-1.28 0.57-1.28 1.28v5.12c0 0.71 0.57 1.28 1.28 1.28s1.28-0.57 1.28-1.28z m14.08 14.08h5.12c1.41 0 2.56-1.15 2.56-2.56v-12.8h-7.68v15.36z m-28.16-17.92h7.68v-3.84c0-0.71 0.57-1.28 1.28-1.28h7.68c0.71 0 1.28 0.57 1.28 1.28v3.84h7.68v-17.92h-25.6v17.92z"></path></g></svg>