<svg role="img" xmlns="http://www.w3.org/2000/svg" width="64" height="64" viewBox="0 0 48 48"><title>48 odysee</title><rect data-element="frame" x="0" y="0" width="48" height="48" rx="10" ry="10" stroke="none" fill="#FFD808"></rect><g transform="translate(9.600000000000001 9.600000000000001) scale(0.6)" fill="#F4227A" class="nc-icon-wrapper"><path d="M23.93 0a24 24 0 0 0-23.93 24 24 24 0 0 0 24 24 24 24 0 0 0 24-24 24 24 0 0 0-6.42-16.33 14.54 14.54 0 0 1-1.6 6.43c-1.1 1.91-4.56 5.54-6.52 7.4a1.45 1.45 0 0 0 0.11 2.21c1.99 1.48 5.32 4.3 5.57 6.84 0.35 3.67 3.2 8.04 3.35 8.32a1.34 1.34 0 0 1-0.21 0.65 24.13 24.13 0 0 1-4.06 3.8 4.87 4.87 0 0 1-1.61 0.25c-3.89-0.08-3.05-3.73-3.42-5.81s-1.56-6.17-5.44-5.57c0 0 0.97 8.49-2.97 11.09s-11.69 4.54-13.1-0.82 4.92-4.77 5.36-4.77c0.45 0 4.47-1.26 2.54-5.06-1.93-3.8-4.02-7-4.02-7a22.74 22.74 0 0 0-5.47 2.57 10.84 10.84 0 0 0-2.12 1.64c-2.13 2.21-4.38 3.43-5.91 2.72a2.74 2.74 0 0 1-0.64-0.44 23.85 23.85 0 0 1-1.22-5.11c0.86-1.28 4.16-4.08 7.39-5.82 2.61-1.4 5.47-1.98 6.24-2.71-1.34-4.47-3.76-11.41 1.66-14.66 4.27-2.56 9.89-4.11 12.05 2.1 2.16 6.2 1.6 7.59 2.53 7.59 0.93 0 3.22 0.45 4.18-3.5 0.71-2.89 1.15-5.37 2.76-6.18a24 24 0 0 0-13.01-3.83 24 24 0 0 0-0.07 0z m-1 4.25c-0.71-0.04-1.56 0.1-2.6 0.45 0 0-3.79 1.04-3.5 5.06 0.26 3.55 2.16 5.51 6.11 4.02 3.94-1.47 4.62-2.53 3.64-5.51-0.73-2.23-1.53-3.91-3.65-4.02z m0.96 1.45a0.5 0.5 0 0 1 0.37 0.14 3.16 3.16 0 0 1 0.46 0.69 0.51 0.51 0 0 1-0.39 0.74 0.51 0.51 0 0 1-0.47-0.26 3.12 3.12 0 0 0-0.29-0.46 0.51 0.51 0 0 1 0-0.71 0.5 0.5 0 0 1 0.32-0.14z m7.06 0.31a0.44 0.44 0 0 1 0.39 0.2 0.44 0.44 0 0 1-0.14 0.61 0.44 0.44 0 1 1-0.25-0.81z m-5.73 2.53a0.51 0.51 0 0 1 0.45 0.27 3 3 0 0 1 0.21 1.96 0.51 0.51 0 0 1-0.5 0.41h-0.09a0.51 0.51 0 0 1-0.4-0.59 2.03 2.03 0 0 0-0.15-1.39 0.51 0.51 0 0 1 0.48-0.66z m-16.07 1.1a0.24 0.24 0 0 1 0.06 0.01 0.24 0.24 0 1 1-0.3 0.18 0.24 0.24 0 0 1 0.24-0.19z m31.54 6.84l0.54 1.08 1.19 0.24-1.08 0.55-0.24 1.18-0.55-1.07-1.18-0.25 1.07-0.54z m-35.54 1.07a0.44 0.44 0 0 1 0.39 0.21 0.44 0.44 0 0 1-0.14 0.61 0.44 0.44 0 1 1-0.25-0.82z m32.01 5.58a0.52 0.52 0 0 1 0.13 0.02 0.52 0.52 0 1 1-0.62 0.39 0.52 0.52 0 0 1 0.49-0.41z m-27.33 9.1a0.34 0.34 0 0 1 0.33 0.28 0.34 0.34 0 0 1-0.28 0.39 0.34 0.34 0 1 1-0.05-0.67z m19.54 8.19a0.4 0.4 0 0 1 0.07 0.01 0.4 0.4 0 1 1-0.47 0.3 0.4 0.4 0 0 1 0.4-0.31z"></path></g></svg>