<svg xmlns="http://www.w3.org/2000/svg" width="64" height="64" viewBox="0 0 448 448"><title>448 diff side by side svgrepo com</title><rect data-element="frame" x="0" y="0" width="448" height="448" rx="90" ry="90" stroke="none" fill="#FFD808"></rect><g transform="translate(89.60000000000001 89.60000000000001) scale(0.6)" fill="#F4227A" class="nc-icon-wrapper"><g id="1745249832843-6531995_layer1" transform="translate(0 -604.362)"><path id="1745249832843-6531995_rect4139" transform="translate(0 604.362)" d="m 256,96 0,128 0,64 0,64 192,0 0,-64 0,-64 0,-128 -192,0 z m 32,32 128,0 0,96 -128,0 0,-96 z m 0,160 128,0 0,32 -128,0 0,-32 z M 0,96 l 0,64 0,32 0,160 192,0 0,-160 0,-32 0,-64 -192,0 z m 32,32 128,0 0,32 -128,0 0,-32 z m 0,64 128,0 0,128 -128,0 0,-128 z" fill-opacity="1" stroke="none"></path></g></g></svg>