<svg xmlns="http://www.w3.org/2000/svg" width="64" height="64" viewBox="0 0 32 32"><title>64 chip component svgrepo com</title><rect data-element="frame" x="0" y="0" width="32" height="32" rx="7" ry="7" stroke="none" fill="#FFD808"></rect><g transform="translate(6.4 6.4) scale(0.6)" fill="#f4227a" class="nc-icon-wrapper"><g id="1745254541171-3926380_SVGRepo_iconCarrier"><path class="st0" d="M23,25H9c-1.1,0-2-0.9-2-2V9c0-1.1,0.9-2,2-2h14c1.1,0,2,0.9,2,2v14C25,24.1,24.1,25,23,25z" fill="none" stroke="#f4227a" stroke-width="2" stroke-linecap="round" stroke-linejoin="round" stroke-miterlimit="10"></path><path class="st0" d="M19,21h-6c-1.1,0-2-0.9-2-2v-6c0-1.1,0.9-2,2-2h6c1.1,0,2,0.9,2,2v6C21,20.1,20.1,21,19,21z" fill="none" stroke="#f4227a" stroke-width="2" stroke-linecap="round" stroke-linejoin="round" stroke-miterlimit="10"></path><path class="st0" d="M14 3L14 7" fill="none" stroke="#f4227a" stroke-width="2" stroke-linecap="round" stroke-linejoin="round" stroke-miterlimit="10"></path><path class="st0" d="M10 3L10 7" fill="none" stroke="#f4227a" stroke-width="2" stroke-linecap="round" stroke-linejoin="round" stroke-miterlimit="10"></path><path class="st0" d="M22 3L22 7" fill="none" stroke="#f4227a" stroke-width="2" stroke-linecap="round" stroke-linejoin="round" stroke-miterlimit="10"></path><path class="st0" d="M18 3L18 7" fill="none" stroke="#f4227a" stroke-width="2" stroke-linecap="round" stroke-linejoin="round" stroke-miterlimit="10"></path><path class="st0" d="M14 25L14 29" fill="none" stroke="#f4227a" stroke-width="2" stroke-linecap="round" stroke-linejoin="round" stroke-miterlimit="10"></path><path class="st0" d="M10 25L10 29" fill="none" stroke="#f4227a" stroke-width="2" stroke-linecap="round" stroke-linejoin="round" stroke-miterlimit="10"></path><path class="st0" d="M22 25L22 29" fill="none" stroke="#f4227a" stroke-width="2" stroke-linecap="round" stroke-linejoin="round" stroke-miterlimit="10"></path><path class="st0" d="M18 25L18 29" fill="none" stroke="#f4227a" stroke-width="2" stroke-linecap="round" stroke-linejoin="round" stroke-miterlimit="10"></path><path class="st0" d="M25 18L29 18" fill="none" stroke="#f4227a" stroke-width="2" stroke-linecap="round" stroke-linejoin="round" stroke-miterlimit="10"></path><path class="st0" d="M25 22L29 22" fill="none" stroke="#f4227a" stroke-width="2" stroke-linecap="round" stroke-linejoin="round" stroke-miterlimit="10"></path><path class="st0" d="M25 10L29 10" fill="none" stroke="#f4227a" stroke-width="2" stroke-linecap="round" stroke-linejoin="round" stroke-miterlimit="10"></path><path class="st0" d="M25 14L29 14" fill="none" stroke="#f4227a" stroke-width="2" stroke-linecap="round" stroke-linejoin="round" stroke-miterlimit="10"></path><path class="st0" d="M3 18L7 18" fill="none" stroke="#f4227a" stroke-width="2" stroke-linecap="round" stroke-linejoin="round" stroke-miterlimit="10"></path><path class="st0" d="M3 22L7 22" fill="none" stroke="#f4227a" stroke-width="2" stroke-linecap="round" stroke-linejoin="round" stroke-miterlimit="10"></path><path class="st0" d="M3 10L7 10" fill="none" stroke="#f4227a" stroke-width="2" stroke-linecap="round" stroke-linejoin="round" stroke-miterlimit="10"></path><path class="st0" d="M3 14L7 14" fill="none" stroke="#f4227a" stroke-width="2" stroke-linecap="round" stroke-linejoin="round" stroke-miterlimit="10"></path></g></g></svg>