<svg xmlns="http://www.w3.org/2000/svg" width="64" height="64" viewBox="0 0 46 46"><title>48 rocket launch</title><rect data-element="frame" x="0" y="0" width="46" height="46" rx="10" ry="10" stroke="none" fill="#FFD808"></rect><g transform="translate(9.200000000000001 9.200000000000001) scale(0.6)" fill="#F4227A" class="nc-icon-wrapper"><path d="M3.21 31.69c-2.32 2.32-3.48 8.14-3.15 14.33 6.22 0.33 12.01-0.84 14.34-3.16 3.62-3.62 3.86-8.45 0.56-11.74-3.3-3.28-8.12-3.06-11.75 0.57z m7.35 7.56c-0.78 0.77-2.71 1.16-4.78 1.05-0.11-2.06 0.27-4 1.05-4.77 1.21-1.21 2.82-1.29 3.91-0.19 1.1 1.09 1.02 2.7-0.18 3.91z m34.9-37.52c-0.1-0.48-0.63-1.01-1.11-1.11-2.89-0.62-5.15-0.62-7.42-0.62-9.28 0-14.86 4.97-19.01 11.52h-9.38c-1.46 0-3.21 1.07-3.86 2.39l-4.44 8.88c-0.15 0.3-0.21 0.63-0.24 0.97 0.01 1.19 0.97 2.16 2.17 2.16h9.35c4.77 0 8.64 3.87 8.64 8.64v9.36c0 1.19 0.97 2.16 2.16 2.16 0.34-0.01 0.66-0.09 0.97-0.22l8.88-4.45c1.3-0.66 2.38-2.4 2.39-3.86v-9.4c6.52-4.16 11.52-9.75 11.52-18.99 0.01-2.27 0.01-4.53-0.62-7.43z m-13.23 22.78c-2.28 1.45-0.67 0.61-8.93 4.7-1.3-2.83-3.59-5.12-6.44-6.43 4.08-8.25 3.23-6.64 4.71-8.94 4.23-6.67 8.83-9.52 15.36-9.52 1.6 0 3.03 0 4.63 0.2 0.21 1.64 0.2 3.1 0.2 4.64 0 6.5-2.85 11.09-9.53 15.35z m0.89-15.15c-1.98 0-3.6 1.61-3.6 3.6 0.01 1.99 1.62 3.6 3.61 3.6 1.98 0 3.59-1.61 3.59-3.6s-1.61-3.6-3.6-3.6z"></path></g></svg>