<svg width="64" height="64" xmlns="http://www.w3.org/2000/svg" viewBox="0 0 48 48"><title>800 lightbulb solid svgrepo com</title><rect data-element="frame" x="0" y="0" width="48" height="48" rx="10" ry="10" stroke="none" fill="#FFD808"></rect><g transform="translate(9.600000000000001 9.600000000000001) scale(0.6)" fill="#F4227A" class="nc-icon-wrapper"><g id="1745250691363-3709780_Layer_2" data-name="Layer 2"><path fill="none" id="1745250691363-3709780_invisible_box" data-name="invisible box" d="M0 0H48V48H0z"></path><path d="M17,42a2.1,2.1,0,0,0,.8,1.6L21,46h6l3.2-2.4A2.1,2.1,0,0,0,31,42V40H17Zm0-8v2H31V34ZM38.9,15C38.3,9.4,33.3,3.8,27.6,2.4A14.7,14.7,0,0,0,24,2,14.9,14.9,0,0,0,9,16.1a14.5,14.5,0,0,0,4.3,10.8A19.5,19.5,0,0,1,15.7,30H32.3a15,15,0,0,1,2.4-3A14.7,14.7,0,0,0,38.9,15Z" id="1745250691363-3709780_Q3_icons" data-name="Q3 icons"></path></g></g></svg>