<svg width="64" height="64" xmlns="http://www.w3.org/2000/svg" viewBox="0 0 24 24"><title>800 list clipboard svgrepo com</title><rect data-element="frame" x="0" y="0" width="24" height="24" rx="5" ry="5" stroke="none" fill="#FFD808"></rect><g transform="translate(4.800000000000001 4.800000000000001) scale(0.6)" fill="none" class="nc-icon-wrapper"><path d="M9 5H7C5.89543 5 5 5.89543 5 7V19C5 20.1046 5.89543 21 7 21H17C18.1046 21 19 20.1046 19 19V7C19 5.89543 18.1046 5 17 5H15" stroke="#F4227A" stroke-width="2" stroke-linecap="round" stroke-linejoin="round"></path><path d="M12 12H15" stroke="#F4227A" stroke-width="2" stroke-linecap="round" stroke-linejoin="round"></path><path d="M12 16H15" stroke="#F4227A" stroke-width="2" stroke-linecap="round" stroke-linejoin="round"></path><path d="M9 5C9 3.89543 9.89543 3 11 3H13C14.1046 3 15 3.89543 15 5V7H9V5Z" stroke="#F4227A" stroke-width="2" stroke-linecap="round" stroke-linejoin="round"></path><circle cx="9" cy="12" r="1" fill="#F4227A"></circle><circle cx="9" cy="16" r="1" fill="#F4227A"></circle></g></svg>