<svg xmlns="http://www.w3.org/2000/svg" width="64" height="64" viewBox="0 0 2 2"><title>48 break svgrepo com</title><rect data-element="frame" x="0" y="0" width="2" height="2" rx="1" ry="1" stroke="none" fill="#FFD808"></rect><g transform="translate(0.4 0.4) scale(0.6)" fill="#F4227A" class="nc-icon-wrapper"><path class="linesandangles_een" d="M0.96 0.18c-0.35 0-0.66 0.47-0.66 0.9s0.33 0.66 0.66 0.66 0.66-0.23 0.66-0.66-0.31-0.9-0.66-0.9z m0 1.44c-0.26 0-0.54-0.17-0.54-0.54 0-0.31 0.17-0.62 0.38-0.73l0.14 0.13-0.18 0.18 0.18 0.18-0.18 0.18 0.22 0.22 0.08-0.08-0.14-0.14 0.18-0.18-0.18-0.18 0.18-0.18-0.17-0.18c0.01 0 0.02 0 0.03 0 0.27 0 0.54 0.39 0.54 0.78 0 0.37-0.28 0.54-0.54 0.54z" fill="#F4227A"></path></g></svg>