<svg width="64" height="64" xmlns="http://www.w3.org/2000/svg" viewBox="0 0 24 24"><title>64 emoji pirate svgrepo com</title><rect data-element="frame" x="0" y="0" width="24" height="24" rx="5" ry="5" stroke="none" fill="#FFD808"></rect><g transform="translate(4.800000000000001 4.800000000000001) scale(0.6)" fill="#F4227A" class="nc-icon-wrapper"><path d="M12,1A11,11,0,1,0,23,12,11.013,11.013,0,0,0,12,1Zm0,2a8.97,8.97,0,0,1,1.457.129L10.019,6.567A3.947,3.947,0,0,0,8,6a4,4,0,0,0-4,4,3.947,3.947,0,0,0,.567,2.019L3.129,13.457A8.943,8.943,0,0,1,12,3ZM6,10a2,2,0,1,1,2,2A2,2,0,0,1,6,10Zm6,11a9.009,9.009,0,0,1-8.225-5.362l2.206-2.2A3.947,3.947,0,0,0,8,14a4,4,0,0,0,4-4,3.947,3.947,0,0,0-.567-2.019l4.206-4.206A9,9,0,0,1,12,21Zm2-10V9a1,1,0,0,1,2,0v2a1,1,0,0,1-2,0Zm2.632,3.225a1,1,0,0,1,.143,1.407A6.033,6.033,0,0,1,12,18a1,1,0,0,1,0-2,4.045,4.045,0,0,0,3.225-1.632A1,1,0,0,1,16.632,14.225Z" id="1745255713506-3434190_SVGRepo_iconCarrier"></path></g></svg>