<svg width="64" height="64" xmlns="http://www.w3.org/2000/svg" viewBox="0 0 2 2"><title>48 powershell svgrepo com</title><rect data-element="frame" x="0" y="0" width="2" height="2" rx="1" ry="1" stroke="none" fill="#FFD808"></rect><g transform="translate(0.4 0.4) scale(0.6)" fill="#F4227A" class="nc-icon-wrapper"><path d="M0.96 1.31h0a0.07 0.07 0 1 0 0 0.14h0.33a0.07 0.07 0 1 0 0-0.14h0 0z m0.21-0.33a0.08 0.08 0 0 0-0.01-0.09l0 0-0.42-0.45a0.08 0.08 0 0 0-0.11 0.11l0 0 0.35 0.38v0l-0.56 0.41a0.08 0.08 0 0 0 0.1 0.13l-0.01 0 0.62-0.45c0.02-0.01 0.03-0.02 0.04-0.04l0 0z m0.63-0.7l0 0a0.06 0.06 0 0 1 0.06 0.08l0 0-0.28 1.2a0.1 0.1 0 0 1-0.09 0.08h-1.37a0.06 0.06 0 0 1-0.06-0.08l0 0 0.28-1.2a0.1 0.1 0 0 1 0.09-0.08h0z"></path></g></svg>