<svg xmlns="http://www.w3.org/2000/svg" height="120" width="105" viewBox="0 0 103 118"><title>105 fire</title><rect data-element="frame" x="0" y="7.5" width="103" height="103" rx="21" ry="21" stroke="none" fill="#FFD808"></rect><g transform="translate(20.6 23.6) scale(0.6)" fill="#F4227A" class="nc-icon-wrapper"><defs fill="#F4227A"></defs><path d="M74.41 11.79c-4.77 4.43-9.09 9.09-12.91 13.77-6.27-8.63-14.06-17.39-22.86-25.56-22.6 20.96-38.64 48.3-38.64 64.77 0 29.27 23.06 52.99 51.52 52.99s51.52-23.72 51.52-52.99c0-12.25-11.96-37.52-28.64-52.98z m-4.46 78.34c-5 3.48-11.13 5.55-17.77 5.55-16.59 0-30.1-10.98-30.1-28.81 0-8.88 5.58-16.7 16.73-30.07 1.61 1.84 22.74 28.84 22.74 28.84l13.49-15.39c0.95 1.55 1.81 3.1 2.59 4.58 6.3 12.02 3.65 27.37-7.68 35.3z" class="fa-secondary" opacity=".4" fill="#F4227A"></path><path d="M69.95 90.13c-5 3.48-11.13 5.55-17.77 5.55-16.59 0-30.1-10.98-30.1-28.81 0-8.88 5.58-16.7 16.73-30.07 1.61 1.84 22.74 28.84 22.74 28.84l13.49-15.38c0.95 1.55 1.81 3.1 2.59 4.57 6.3 12.02 3.65 27.37-7.68 35.3z" class="fa-primary" fill="#F4227A"></path></g></svg>