<?xml version="1.0" encoding="iso-8859-1"?>
<!-- Uploaded to: SVG Repo, www.svgrepo.com, Generator: SVG Repo Mixer Tools -->
<svg fill="#000000" height="800px" width="800px" version="1.1" id="Layer_1" xmlns="http://www.w3.org/2000/svg" xmlns:xlink="http://www.w3.org/1999/xlink" 
	 viewBox="0 0 512 512" xml:space="preserve">
<g>
	<g>
		<path d="M488.284,148.332c-1.069-2.534-5.205-10.971-6.576-12.409c-14.492-22.494-39.743-37.433-68.432-37.433
			c-44.866,0-81.366,36.5-81.366,81.366c0,44.865,36.5,81.365,81.366,81.365c33.397,0,62.146-20.231,74.668-49.075
			c2.677,14.312,4.042,28.947,4.042,43.854c0,130.124-105.862,235.984-235.985,235.984S20.015,386.124,20.015,256
			S125.876,20.015,256,20.015c36.618,0,71.707,8.154,104.294,24.235c4.953,2.446,10.957,0.412,13.402-4.545
			c2.446-4.957,0.411-10.957-4.546-13.403C333.786,8.849,295.717,0,256,0C114.84,0,0,114.84,0,256c0,141.158,114.84,256,256,256
			s256-114.84,256-255.999C512,218.826,503.81,181.846,488.284,148.332z M413.276,241.206c-33.83,0-61.352-27.522-61.352-61.35
			s27.522-61.352,61.352-61.352c23.13,0,43.306,12.871,53.758,31.823c0.961,1.913,1.896,3.835,2.802,5.766
			c3.085,7.312,4.792,15.341,4.792,23.763C474.627,213.686,447.106,241.206,413.276,241.206z"/>
	</g>
</g>
<g>
	<g>
		<path d="M213.163,98.49c-44.866,0-81.366,36.5-81.366,81.366c0,44.865,36.5,81.365,81.366,81.365s81.366-36.5,81.366-81.365
			C294.53,134.99,258.028,98.49,213.163,98.49z M213.163,241.206c-33.83,0-61.352-27.522-61.352-61.35s27.522-61.352,61.352-61.352
			c33.83,0,61.352,27.523,61.352,61.352S246.992,241.206,213.163,241.206z"/>
	</g>
</g>
<g>
	<g>
		<circle cx="195.263" cy="142.545" r="10.007"/>
	</g>
</g>
<g>
	<g>
		<circle cx="398.306" cy="141.157" r="10.007"/>
	</g>
</g>
<g>
	<g>
		<path d="M355.086,362.318c-7.352-2.418-15.039-3.641-22.845-3.641c-25.758,0-50.326,14.294-64.122,37.303
			c-2.841,4.741-1.302,10.888,3.438,13.73c1.612,0.966,3.385,1.425,5.136,1.425c3.401,0,6.717-1.735,8.593-4.864
			c10.199-17.013,28.19-27.58,46.954-27.58c5.679,0,11.262,0.889,16.595,2.641c5.251,1.728,10.907-1.133,12.632-6.382
			C363.193,369.7,360.337,364.043,355.086,362.318z"/>
	</g>
</g>
<g>
	<g>
		<circle cx="395.637" cy="53.399" r="10.007"/>
	</g>
</g>
</svg>