<?xml version="1.0" encoding="UTF-8"?>
<!DOCTYPE svg PUBLIC "-//W3C//DTD SVG 1.1//EN" "http://www.w3.org/Graphics/SVG/1.1/DTD/svg11.dtd">
<svg xmlns="http://www.w3.org/2000/svg" version="1.1" width="800px" height="800px" style="shape-rendering:geometricPrecision; text-rendering:geometricPrecision; image-rendering:optimizeQuality; fill-rule:evenodd; clip-rule:evenodd" xmlns:xlink="http://www.w3.org/1999/xlink">
<g><path style="opacity:1" fill="#fed708" d="M -0.5,-0.5 C 266.167,-0.5 532.833,-0.5 799.5,-0.5C 799.5,266.167 799.5,532.833 799.5,799.5C 532.833,799.5 266.167,799.5 -0.5,799.5C -0.5,532.833 -0.5,266.167 -0.5,-0.5 Z"/></g>
<g><path style="opacity:1" fill="#f42379" d="M 327.5,130.5 C 422.86,130.017 518.193,130.517 613.5,132C 643.051,140.272 660.885,159.439 667,189.5C 667.667,260.833 667.667,332.167 667,403.5C 662.658,430.518 647.825,449.351 622.5,460C 616.383,462.373 610.05,463.706 603.5,464C 527.167,464.5 450.834,464.667 374.5,464.5C 374.5,508.5 374.5,552.5 374.5,596.5C 358.833,596.5 343.167,596.5 327.5,596.5C 327.5,441.167 327.5,285.833 327.5,130.5 Z"/></g>
<g><path style="opacity:1" fill="#f42379" d="M 121.5,131.5 C 141.833,131.5 162.167,131.5 182.5,131.5C 182.167,293.001 182.5,454.334 183.5,615.5C 344.833,615.5 506.167,615.5 667.5,615.5C 667.5,636.167 667.5,656.833 667.5,677.5C 485.5,677.5 303.5,677.5 121.5,677.5C 121.5,495.5 121.5,313.5 121.5,131.5 Z"/></g>
<g><path style="opacity:1" fill="#f7555b" d="M 121.5,131.5 C 141.993,130.503 162.66,130.169 183.5,130.5C 183.5,292.167 183.5,453.833 183.5,615.5C 182.5,454.334 182.167,293.001 182.5,131.5C 162.167,131.5 141.833,131.5 121.5,131.5 Z"/></g>
<g><path style="opacity:1" fill="#fed708" d="M 393.5,177.5 C 462.834,177.333 532.167,177.5 601.5,178C 611.201,180.1 617.368,185.933 620,195.5C 620.667,263.167 620.667,330.833 620,398.5C 617.596,407.237 612.096,413.071 603.5,416C 532.5,416.667 461.5,416.667 390.5,416C 382.507,412.674 377.341,406.841 375,398.5C 374.333,330.833 374.333,263.167 375,195.5C 378.416,186.583 384.583,180.583 393.5,177.5 Z"/></g>
</svg>
